<svg width="20" height="20" viewBox="0 0 20 20" fill="none" xmlns="http://www.w3.org/2000/svg">
<path d="M15.7177 0.157467C16.3476 0.158105 16.9696 0.296424 17.5395 0.562584C18.1093 0.828745 18.6131 1.21621 19.0148 1.6974C19.4166 2.1786 19.7065 2.7417 19.8639 3.34666C20.0214 3.95161 20.0425 4.58355 19.9257 5.19751C19.809 5.81147 19.5573 6.39237 19.1885 6.89887C18.8197 7.40538 18.3429 7.82505 17.7921 8.12802C17.2412 8.431 16.6298 8.60983 16.0013 8.6518C15.3729 8.69377 14.7428 8.59785 14.156 8.37086L9.28775 14.8041V18.5827H11.4311C11.6206 18.5827 11.8023 18.6573 11.9363 18.7902C12.0702 18.9231 12.1455 19.1034 12.1455 19.2913C12.1455 19.4793 12.0702 19.6595 11.9363 19.7924C11.8023 19.9253 11.6206 20 11.4311 20H5.71554C5.52605 20 5.34433 19.9253 5.21035 19.7924C5.07636 19.6595 5.00109 19.4793 5.00109 19.2913C5.00109 19.1034 5.07636 18.9231 5.21035 18.7902C5.34433 18.6573 5.52605 18.5827 5.71554 18.5827H7.85886V14.8041L0.285777 4.79779C0.100276 4.55245 0 4.25406 0 3.94739V3.7107C0 3.52275 0.0752713 3.3425 0.209255 3.2096C0.343239 3.0767 0.52496 3.00204 0.714442 3.00204H2.31765L0.854473 1.14534C0.737752 0.997238 0.685125 0.809208 0.708171 0.622617C0.731216 0.436026 0.828045 0.266157 0.977357 0.150381C1.12667 0.0346042 1.31623 -0.0175964 1.50434 0.00526237C1.69246 0.0281211 1.86371 0.124167 1.98043 0.272271L4.12947 3.00204H11.6697C11.9641 2.17026 12.5117 1.44975 13.2369 0.940155C13.9621 0.43056 14.829 0.157056 15.7177 0.157467ZM13.2372 3.00204H16.4322C16.6216 3.00204 16.8034 3.0767 16.9374 3.2096C17.0713 3.3425 17.1466 3.52275 17.1466 3.7107V3.94597C17.1466 4.25264 17.0463 4.55103 16.8608 4.79637L15.0647 7.17039C15.5808 7.29032 16.1203 7.26552 16.623 7.09876C17.1257 6.932 17.5717 6.62985 17.9113 6.22608C18.2508 5.82231 18.4704 5.33285 18.5455 4.81239C18.6207 4.29193 18.5484 3.761 18.3368 3.27893C18.1252 2.79687 17.7826 2.38268 17.3474 2.08266C16.9121 1.78263 16.4013 1.6086 15.872 1.58002C15.3427 1.55144 14.8158 1.66943 14.3503 1.9208C13.8847 2.17217 13.4989 2.54703 13.2358 3.00345V3.00204H13.2372ZM5.24686 4.41936L8.13749 8.09023C8.24761 8.23882 8.29499 8.42413 8.26958 8.60681C8.24417 8.78949 8.14797 8.95515 8.00141 9.06861C7.85484 9.18207 7.66947 9.23439 7.48464 9.21446C7.29981 9.19454 7.1301 9.10393 7.01153 8.96188L3.43361 4.41936H1.7861L8.5733 13.3868L15.3605 4.41936H5.24686Z" fill="#00D76B"/>
</svg>
