<svg width="35" height="37" viewBox="0 0 35 37" fill="none" xmlns="http://www.w3.org/2000/svg">
<path d="M32.793 25.0221C32.793 25.0221 32.5142 29.67 29.696 31.361C26.8778 33.0519 23.9329 33.2889 23.9329 33.2889" stroke="#363545" stroke-linecap="round"/>
<path d="M31.8536 25.3979C29.2445 28.3944 27.4759 29.1116 24.4964 28.9628" stroke="#363545" stroke-linecap="round"/>
<path d="M32.788 25.2001C32.7933 24.6471 32.4193 24.6506 31.6625 25.5794" stroke="#363545" stroke-linecap="round"/>
<path d="M27.3444 25.9614C25.957 27.3457 25.4918 27.9982 24.5262 28.9676" stroke="#363545" stroke-linecap="round"/>
<path d="M25.4114 25.52C22.0992 27.682 20.5806 29.1556 19.4534 30.8465" stroke="#363545" stroke-linecap="round"/>
<path d="M23.7746 33.2889C23.5868 34.4162 23.7746 35.9193 23.7746 35.9193" stroke="#363545" stroke-linecap="round"/>
<path d="M19.4534 30.8466C19.1598 34.003 19.2655 36.1073 19.2655 36.1073" stroke="#363545" stroke-linecap="round"/>
<path d="M27.3169 25.9835C28.5113 24.839 27.5031 24.0632 25.3092 25.5849" stroke="#363545" stroke-linecap="round"/>
<path d="M1.80666 24.8005C1.80666 24.8005 2.0854 29.4485 4.90364 31.1394C7.72188 32.8304 10.6668 33.0674 10.6668 33.0674" stroke="#363545" stroke-linecap="round"/>
<path d="M2.74608 25.1763C5.35521 28.1727 7.12377 28.8899 10.1033 28.7411" stroke="#363545" stroke-linecap="round"/>
<path d="M1.81166 24.9784C1.80631 24.4254 2.18031 24.429 2.93717 25.3577" stroke="#363545" stroke-linecap="round"/>
<path d="M7.25525 25.7399C8.64266 27.1242 9.10781 27.7766 10.0735 28.746" stroke="#363545" stroke-linecap="round"/>
<path d="M9.18827 25.2983C12.5004 27.4603 14.019 28.9339 15.1463 30.6248" stroke="#363545" stroke-linecap="round"/>
<path d="M10.825 33.0674C11.0129 34.1947 10.825 35.6977 10.825 35.6977" stroke="#363545" stroke-linecap="round"/>
<path d="M15.1463 30.6249C15.4399 33.7813 15.3342 35.8856 15.3342 35.8856" stroke="#363545" stroke-linecap="round"/>
<path d="M7.28272 25.7618C6.08835 24.6173 7.09652 23.8416 9.29049 25.3632" stroke="#363545" stroke-linecap="round"/>
<circle cx="17.213" cy="19.164" r="5.888" stroke="#363545"/>
<line x1="13.7439" y1="11.8567" x2="14.4149" y2="12.8632" stroke="#363545" stroke-width="1.5" stroke-linecap="round"/>
<path d="M14.9629 13.0496C14.7079 13.1558 14.4152 13.0353 14.309 12.7804C14.2028 12.5255 14.3233 12.2328 14.5782 12.1266L14.9629 13.0496ZM17.0912 7.84231C17.1181 7.56749 17.3627 7.3665 17.6375 7.3934C17.9123 7.42031 18.1133 7.66491 18.0864 7.93974L17.0912 7.84231ZM14.5782 12.1266C15.6559 11.6776 16.1737 11.2531 16.485 10.6837C16.8172 10.0759 16.9544 9.2398 17.0912 7.84231L18.0864 7.93974C17.9527 9.30547 17.808 10.3482 17.3624 11.1633C16.8959 12.0168 16.1398 12.5593 14.9629 13.0496L14.5782 12.1266Z" fill="#363545"/>
<path d="M14.1466 12.6119C14.1687 12.8872 14.4098 13.0924 14.685 13.0703C14.9603 13.0482 15.1655 12.8072 15.1434 12.5319L14.1466 12.6119ZM17.6668 8.24011C17.9261 8.14515 18.0593 7.85797 17.9643 7.59866C17.8694 7.33936 17.5822 7.20614 17.3229 7.3011L17.6668 8.24011ZM15.1434 12.5319C15.0401 11.2447 15.0604 10.4419 15.3702 9.83268C15.6659 9.251 16.283 8.74689 17.6668 8.24011L17.3229 7.3011C15.8568 7.83799 14.9467 8.45913 14.4787 9.37948C14.0248 10.2723 14.0452 11.3484 14.1466 12.6119L15.1434 12.5319Z" fill="#363545"/>
<path d="M7.65592 15.962C7.60815 16.234 7.34895 16.4157 7.07697 16.368C6.80499 16.3202 6.62323 16.061 6.671 15.789L7.65592 15.962ZM4.41412 11.3645C4.19703 11.1939 4.15939 10.8795 4.33005 10.6624C4.50071 10.4453 4.81505 10.4077 5.03214 10.5784L4.41412 11.3645ZM6.671 15.789C6.87294 14.6392 6.79411 13.9743 6.48191 13.4054C6.14871 12.7981 5.51803 12.2323 4.41412 11.3645L5.03214 10.5784C6.11096 11.4265 6.91169 12.1099 7.3586 12.9243C7.82651 13.777 7.87648 14.7062 7.65592 15.962L6.671 15.789Z" fill="#363545"/>
<path d="M6.84751 16.414C7.09135 16.5436 7.39408 16.451 7.52369 16.2072C7.65329 15.9633 7.56069 15.6606 7.31685 15.531L6.84751 16.414ZM5.05925 11.0936C5.11887 10.824 4.94861 10.5571 4.67898 10.4975C4.40935 10.4379 4.14244 10.6081 4.08283 10.8778L5.05925 11.0936ZM7.31685 15.531C6.17654 14.9249 5.51108 14.4755 5.16451 13.8864C4.83361 13.324 4.74112 12.5326 5.05925 11.0936L4.08283 10.8778C3.74579 12.4022 3.77906 13.5036 4.30261 14.3935C4.81049 15.2567 5.72819 15.8191 6.84751 16.414L7.31685 15.531Z" fill="#363545"/>
<path d="M6.7982 15.4681C7.05953 15.3788 7.34371 15.5184 7.43293 15.7797C7.52216 16.041 7.38264 16.3252 7.1213 16.4144L6.7982 15.4681ZM4.33222 20.5242C4.28731 20.7967 4.03002 20.9812 3.75756 20.9363C3.48509 20.8913 3.30062 20.6341 3.34553 20.3616L4.33222 20.5242ZM7.1213 16.4144C6.01648 16.7916 5.4719 17.1811 5.12385 17.7289C4.75239 18.3135 4.56058 19.1388 4.33222 20.5242L3.34553 20.3616C3.5687 19.0076 3.78161 17.9766 4.27983 17.1926C4.80148 16.3716 5.59157 15.88 6.7982 15.4681L7.1213 16.4144Z" fill="#363545"/>
<path d="M7.5839 15.9586C7.57994 15.6825 7.3529 15.4619 7.07679 15.4658C6.80068 15.4698 6.58005 15.6968 6.584 15.9729L7.5839 15.9586ZM3.784 20.0896C3.51902 20.1673 3.3672 20.4451 3.44492 20.7101C3.52263 20.975 3.80044 21.1269 4.06542 21.0491L3.784 20.0896ZM6.584 15.9729C6.60249 17.2642 6.52943 18.0638 6.18032 18.6514C5.84699 19.2124 5.1981 19.6748 3.784 20.0896L4.06542 21.0491C5.56357 20.6098 6.51262 20.0498 7.04001 19.1622C7.55161 18.3012 7.60205 17.2261 7.5839 15.9586L6.584 15.9729Z" fill="#363545"/>
<path d="M6.92139 15.5546C7.159 15.6953 7.23755 16.002 7.09685 16.2396C6.95614 16.4772 6.64946 16.5557 6.41185 16.415L6.92139 15.5546ZM1.00411 17.0124C0.767796 17.1553 0.46041 17.0795 0.317541 16.8432C0.174672 16.6069 0.250422 16.2995 0.486734 16.1566L1.00411 17.0124ZM6.41185 16.415C5.31644 15.7663 4.60006 15.5862 3.88811 15.6874C3.13292 15.7946 2.30849 16.2238 1.00411 17.0124L0.486734 16.1566C1.76382 15.3845 2.7583 14.8378 3.7475 14.6973C4.77993 14.5507 5.73342 14.8511 6.92139 15.5546L6.41185 16.415Z" fill="#363545"/>
<path d="M7.06436 16.4801C7.2717 16.2977 7.29193 15.9818 7.10955 15.7744C6.92716 15.5671 6.61123 15.5468 6.40389 15.7292L7.06436 16.4801ZM0.975002 16.326C0.743775 16.175 0.433952 16.2401 0.282992 16.4713C0.132033 16.7025 0.197102 17.0123 0.428329 17.1633L0.975002 16.326ZM6.40389 15.7292C5.35116 16.6553 4.63066 17.1678 3.88536 17.2965C3.17052 17.42 2.31888 17.2033 0.975002 16.326L0.428329 17.1633C1.84554 18.0886 2.96632 18.4701 4.05554 18.282C5.11429 18.0991 6.02948 17.3904 7.06436 16.4801L6.40389 15.7292Z" fill="#363545"/>
<path d="M27.0819 16.7224C27.0748 16.4464 27.2928 16.2169 27.5689 16.2098C27.8449 16.2027 28.0745 16.4208 28.0815 16.6968L27.0819 16.7224ZM31.1705 20.5863C31.4171 20.7105 31.5163 21.0112 31.392 21.2578C31.2678 21.5044 30.9672 21.6036 30.7205 21.4793L31.1705 20.5863ZM28.0815 16.6968C28.1115 17.8639 28.3205 18.4999 28.7393 18.9957C29.1862 19.5249 29.9165 19.9544 31.1705 20.5863L30.7205 21.4793C29.495 20.8619 28.5748 20.3507 27.9753 19.641C27.3477 18.8979 27.1146 17.997 27.0819 16.7224L28.0815 16.6968Z" fill="#363545"/>
<path d="M27.7846 16.1191C27.52 16.0404 27.2416 16.1912 27.1629 16.4559C27.0842 16.7205 27.2349 16.9989 27.4996 17.0776L27.7846 16.1191ZM30.5918 20.9795C30.5868 21.2556 30.8066 21.4835 31.0827 21.4885C31.3588 21.4935 31.5867 21.2737 31.5917 20.9976L30.5918 20.9795ZM27.4996 17.0776C28.7374 17.4457 29.4787 17.7543 29.9352 18.263C30.371 18.7487 30.6185 19.5061 30.5918 20.9795L31.5917 20.9976C31.6199 19.4366 31.369 18.3636 30.6795 17.5952C30.0106 16.8497 28.9997 16.4804 27.7846 16.1191L27.4996 17.0776Z" fill="#363545"/>
<path d="M28.0205 17.0365C27.782 17.1757 27.4758 17.0953 27.3365 16.8568C27.1973 16.6184 27.2777 16.3122 27.5162 16.1729L28.0205 17.0365ZM29.4355 11.5919C29.4255 11.3159 29.6411 11.0841 29.9171 11.0741C30.193 11.0642 30.4248 11.2798 30.4348 11.5557L29.4355 11.5919ZM27.5162 16.1729C28.5244 15.5842 28.9809 15.0945 29.2135 14.4887C29.4618 13.8421 29.4862 12.9951 29.4355 11.5919L30.4348 11.5557C30.4844 12.9271 30.4801 13.9798 30.1471 14.8471C29.7985 15.7551 29.1215 16.3935 28.0205 17.0365L27.5162 16.1729Z" fill="#363545"/>
<path d="M27.1531 16.7114C27.2117 16.9813 27.478 17.1525 27.7478 17.0939C28.0177 17.0353 28.189 16.7691 28.1304 16.4992L27.1531 16.7114ZM30.059 11.9093C30.3033 11.7806 30.397 11.4782 30.2684 11.2339C30.1397 10.9896 29.8373 10.8958 29.593 11.0245L30.059 11.9093ZM28.1304 16.4992C27.8563 15.2372 27.7695 14.439 27.9952 13.7939C28.2107 13.1779 28.7551 12.5961 30.059 11.9093L29.593 11.0245C28.2116 11.7521 27.3924 12.489 27.0513 13.4636C26.7205 14.4089 26.8841 15.4727 27.1531 16.7114L28.1304 16.4992Z" fill="#363545"/>
<path d="M27.8826 16.9761C27.6218 16.8853 27.484 16.6003 27.5748 16.3395C27.6657 16.0787 27.9507 15.9409 28.2115 16.0318L27.8826 16.9761ZM33.3936 14.3745C33.5969 14.1876 33.9132 14.201 34.1 14.4043C34.2869 14.6076 34.2736 14.9239 34.0703 15.1108L33.3936 14.3745ZM28.2115 16.0318C29.4137 16.4505 30.1516 16.485 30.8294 16.2448C31.5483 15.99 32.2713 15.406 33.3936 14.3745L34.0703 15.1108C32.9715 16.1206 32.1051 16.8537 31.1634 17.1874C30.1805 17.5357 29.1864 17.4302 27.8826 16.9761L28.2115 16.0318Z" fill="#363545"/>
<path d="M27.559 16.0974C27.3919 16.3173 27.4347 16.6309 27.6546 16.798C27.8744 16.9651 28.1881 16.9223 28.3552 16.7025L27.559 16.0974ZM33.5581 15.0417C33.8147 15.1438 34.1055 15.0186 34.2076 14.7621C34.3098 14.5055 34.1846 14.2147 33.928 14.1126L33.5581 15.0417ZM28.3552 16.7025C29.2035 15.5862 29.8082 14.941 30.5132 14.6671C31.1894 14.4044 32.067 14.448 33.5581 15.0417L33.928 14.1126C32.3556 13.4865 31.1814 13.3347 30.1511 13.7349C29.1495 14.124 28.393 15 27.559 16.0974L28.3552 16.7025Z" fill="#363545"/>
<path d="M10.7008 2.25459C10.7008 2.84737 10.6066 3.26473 10.3887 3.53508C10.1896 3.78211 9.80023 4.00918 8.94618 4.00918C7.97715 4.00918 7.19159 3.22362 7.19159 2.25459C7.19159 1.28823 7.42785 0.919967 7.65151 0.752605C7.90319 0.564268 8.28858 0.503909 8.88534 0.500186C9.23933 0.588785 9.52648 0.662142 9.77002 0.74586C10.0253 0.833604 10.1984 0.921848 10.3218 1.02216C10.53 1.19127 10.7008 1.47904 10.7008 2.25459Z" stroke="#363545"/>
<path d="M7.20952 7.18658L7.21213 7.16113V7.13555C7.21213 6.58129 7.34083 6.0969 7.57705 5.78761C7.78704 5.51269 8.11842 5.32392 8.70235 5.40297L8.76569 5.41155L8.82916 5.40391C9.53243 5.31928 9.97454 5.52743 10.2497 5.82412C10.5408 6.13801 10.7008 6.61248 10.7008 7.13555C10.7008 7.85468 10.4946 8.30624 10.2112 8.56199C9.93754 8.80896 9.5083 8.94869 8.88611 8.87444C8.71973 8.81621 8.5391 8.76086 8.37701 8.71119C8.27634 8.68034 8.18283 8.65169 8.10433 8.6259C7.85499 8.54398 7.67306 8.46731 7.53677 8.3718C7.41258 8.28477 7.32387 8.18042 7.26625 8.02346C7.20453 7.85535 7.16752 7.59592 7.20952 7.18658Z" stroke="#363545"/>
<path d="M15.21 4.52746C15.21 5.2315 15.0753 5.71006 14.8456 6.00536C14.6353 6.27572 14.2839 6.46992 13.6433 6.46992C13.2272 6.46992 12.8965 6.30591 12.6372 5.99319C12.3776 5.6801 12.1764 5.19866 12.084 4.55021C12.263 3.77214 12.4225 3.458 12.6213 3.27335C12.8362 3.07381 13.1642 2.95602 13.9186 2.76641C14.261 2.73243 14.4863 2.77623 14.6352 2.84235C14.7828 2.90787 14.8893 3.01008 14.9724 3.15293C15.1567 3.46999 15.21 3.9566 15.21 4.52746Z" stroke="#363545"/>
<path d="M26.547 4.98826C26.646 5.17708 26.757 5.38838 26.8854 5.62489C27.055 6.41699 27.036 6.88502 26.7175 7.26416C26.3503 7.70129 25.4903 8.14502 23.5543 8.51821C22.2522 8.50999 21.5455 8.15812 21.1891 7.73386C20.8351 7.31244 20.73 6.70354 20.8889 5.96139C20.9262 5.85552 20.9626 5.75206 20.9982 5.65098C21.229 4.99538 21.4245 4.43967 21.6135 3.97102C21.8356 3.42 22.032 3.033 22.2343 2.77293C22.4265 2.52577 22.605 2.41699 22.8021 2.37824C23.0154 2.33631 23.3208 2.36249 23.7867 2.52964C25.0002 3.0905 25.4685 3.38139 25.7883 3.73876C25.9501 3.91959 26.0871 4.13302 26.26 4.44761C26.3406 4.59436 26.4259 4.75716 26.5249 4.94603C26.5322 4.95996 26.5396 4.97404 26.547 4.98826Z" stroke="#363545"/>
<line x1="26.2314" y1="2.69691" x2="27.0495" y2="1.87874" stroke="#363545" stroke-width="1.5" stroke-linecap="round"/>
<line x1="26.7828" y1="3.24247" x2="27.9709" y2="3.58191" stroke="#363545" stroke-width="1.5" stroke-linecap="round"/>
<line x1="25.4814" y1="2.63184" x2="25.4814" y2="1.87725" stroke="#363545" stroke-width="1.5" stroke-linecap="round"/>
</svg>
