<svg width="13" height="20" viewBox="0 0 13 20" fill="none" xmlns="http://www.w3.org/2000/svg">
<path d="M1.44444 0.714286C1.44444 0.524845 1.36835 0.343164 1.23291 0.209209C1.09747 0.0752549 0.913768 0 0.722222 0C0.530677 0 0.346977 0.0752549 0.211534 0.209209C0.0760913 0.343164 7.5276e-08 0.524845 7.5276e-08 0.714286V5C-0.000169831 5.82332 0.287288 6.62142 0.813723 7.25922C1.34016 7.89701 2.07324 8.33534 2.88889 8.5V19.2857C2.88889 19.4752 2.96498 19.6568 3.10042 19.7908C3.23587 19.9247 3.41957 20 3.61111 20C3.80266 20 3.98636 19.9247 4.1218 19.7908C4.25724 19.6568 4.33333 19.4752 4.33333 19.2857V8.5C5.14899 8.33534 5.88206 7.89701 6.4085 7.25922C6.93493 6.62142 7.22239 5.82332 7.22222 5V0.714286C7.22222 0.524845 7.14613 0.343164 7.01069 0.209209C6.87525 0.0752549 6.69155 0 6.5 0C6.30845 0 6.12475 0.0752549 5.98931 0.209209C5.85387 0.343164 5.77778 0.524845 5.77778 0.714286V5C5.77801 5.44332 5.63922 5.87581 5.38051 6.23784C5.12181 6.59988 4.75595 6.87365 4.33333 7.02143V0.714286C4.33333 0.524845 4.25724 0.343164 4.1218 0.209209C3.98636 0.0752549 3.80266 0 3.61111 0C3.41957 0 3.23587 0.0752549 3.10042 0.209209C2.96498 0.343164 2.88889 0.524845 2.88889 0.714286V7.02143C2.46628 6.87365 2.10041 6.59988 1.84171 6.23784C1.58301 5.87581 1.44421 5.44332 1.44444 5V0.714286ZM11.5556 19.2857V10H9.38889C9.19734 10 9.01364 9.92475 8.8782 9.79079C8.74276 9.65684 8.66667 9.47515 8.66667 9.28571V3.57143C8.66667 2.62429 9.13756 1.73857 9.78033 1.10143C10.4246 0.465714 11.3201 0 12.2778 0C12.4693 0 12.653 0.0752549 12.7885 0.209209C12.9239 0.343164 13 0.524845 13 0.714286V19.2857C13 19.4752 12.9239 19.6568 12.7885 19.7908C12.653 19.9247 12.4693 20 12.2778 20C12.0862 20 11.9025 19.9247 11.7671 19.7908C11.6316 19.6568 11.5556 19.4752 11.5556 19.2857Z" fill="#00D76B"/>
</svg>
