<svg width="20" height="22" viewBox="0 0 20 22" fill="none" xmlns="http://www.w3.org/2000/svg">
<path d="M16.1576 13.857C15.5823 13.8599 15.0151 13.9919 14.4977 14.2433C13.9803 14.4946 13.5259 14.859 13.1681 15.3094L7.55047 11.7974C7.75521 11.1367 7.75521 10.4294 7.55047 9.76862L13.1681 6.25662C13.7383 6.96264 14.54 7.44407 15.4311 7.61562C16.3223 7.78717 17.2454 7.63777 18.0369 7.19389C18.8285 6.75 19.4373 6.04029 19.7557 5.19046C20.0741 4.34063 20.0814 3.40554 19.7763 2.55084C19.4713 1.69614 18.8736 0.976991 18.089 0.520793C17.3045 0.0645954 16.3839 -0.0992088 15.4902 0.0583977C14.5964 0.216004 13.7874 0.684848 13.2062 1.38188C12.6251 2.07891 12.3094 2.95913 12.3151 3.86662C12.3187 4.21027 12.3705 4.55172 12.4688 4.88102L6.85115 8.39302C6.3552 7.76869 5.67731 7.3141 4.91144 7.09227C4.14558 6.87044 3.32967 6.89236 2.57682 7.15499C1.82397 7.41762 1.17147 7.90795 0.709756 8.55802C0.248046 9.20808 0 9.98568 0 10.783C0 11.5804 0.248046 12.358 0.709756 13.008C1.17147 13.6581 1.82397 14.1484 2.57682 14.411C3.32967 14.6737 4.14558 14.6956 4.91144 14.4738C5.67731 14.2519 6.3552 13.7974 6.85115 13.173L12.4688 16.685C12.3705 17.0143 12.3187 17.3558 12.3151 17.6994C12.3151 18.4594 12.5405 19.2023 12.9627 19.8342C13.3849 20.4661 13.985 20.9586 14.6871 21.2494C15.3892 21.5402 16.1618 21.6163 16.9072 21.468C17.6525 21.3198 18.3372 20.9538 18.8746 20.4164C19.4119 19.8791 19.7779 19.1944 19.9262 18.449C20.0744 17.7037 19.9983 16.9311 19.7075 16.229C19.4167 15.5269 18.9242 14.9268 18.2923 14.5045C17.6604 14.0823 16.9175 13.857 16.1576 13.857ZM16.1576 1.56115C16.6135 1.56115 17.0593 1.69636 17.4384 1.94969C17.8175 2.20302 18.113 2.56308 18.2875 2.98435C18.462 3.40562 18.5077 3.86918 18.4187 4.31639C18.3298 4.76361 18.1102 5.17441 17.7878 5.49683C17.4653 5.81926 17.0545 6.03883 16.6073 6.12779C16.1601 6.21674 15.6966 6.17109 15.2753 5.99659C14.854 5.8221 14.494 5.5266 14.2406 5.14747C13.9873 4.76834 13.8521 4.3226 13.8521 3.86662C13.8521 3.25517 14.095 2.66877 14.5273 2.23641C14.9597 1.80405 15.5461 1.56115 16.1576 1.56115ZM3.86172 13.0885C3.40575 13.0885 2.96001 12.9533 2.58088 12.6999C2.20174 12.4466 1.90625 12.0866 1.73175 11.6653C1.55725 11.244 1.5116 10.7805 1.60056 10.3332C1.68951 9.88603 1.90909 9.47523 2.23151 9.15281C2.55394 8.83038 2.96473 8.61081 3.41195 8.52185C3.85917 8.4329 4.32272 8.47855 4.74399 8.65305C5.16526 8.82754 5.52532 9.12304 5.77865 9.50217C6.03198 9.8813 6.16719 10.327 6.16719 10.783C6.16719 11.3945 5.9243 11.9809 5.49194 12.4132C5.05958 12.8456 4.47317 13.0885 3.86172 13.0885ZM16.1576 20.0049C15.7016 20.0049 15.2558 19.8697 14.8767 19.6164C14.4976 19.363 14.2021 19.003 14.0276 18.5817C13.8531 18.1604 13.8074 17.6969 13.8964 17.2496C13.9853 16.8024 14.2049 16.3916 14.5273 16.0692C14.8498 15.7468 15.2606 15.5272 15.7078 15.4383C16.155 15.3493 16.6185 15.395 17.0398 15.5695C17.4611 15.7439 17.8211 16.0394 18.0745 16.4186C18.3278 16.7977 18.463 17.2434 18.463 17.6994C18.463 18.3109 18.2201 18.8973 17.7878 19.3296C17.3554 19.762 16.769 20.0049 16.1576 20.0049Z" fill="#00D76B"/>
</svg>
